<?xml version="1.0" standalone="no"?>
<!DOCTYPE svg PUBLIC "-//W3C//DTD SVG 20010904//EN"
 "http://www.w3.org/TR/2001/REC-SVG-20010904/DTD/svg10.dtd">
<svg version="1.0" xmlns="http://www.w3.org/2000/svg"
 width="150.000000pt" height="150.000000pt" viewBox="0 0 150.000000 150.000000"
 preserveAspectRatio="xMidYMid meet">
<metadata>
Created by potrace 1.14, written by Peter Selinger 2001-2017
</metadata>
<g transform="translate(0.000000,150.000000) scale(0.100000,-0.100000)"
fill="#000000" stroke="none">
<path d="M695 1424 c-232 -40 -405 -167 -509 -371 -14 -29 -26 -57 -26 -63 0
-6 37 -67 82 -136 l81 -126 93 144 c52 79 112 162 135 186 129 130 335 142
522 30 54 -33 78 -41 113 -40 124 1 185 143 104 236 -37 42 -157 101 -257 127
-94 23 -244 30 -338 13z"/>
<path d="M851 833 c-97 -50 -99 -175 -5 -223 22 -12 61 -16 142 -15 l112 0 0
-98 0 -98 -62 -29 c-107 -48 -240 -58 -341 -24 -128 42 -214 133 -257 271
l-17 55 -29 -46 c-28 -46 -54 -61 -91 -54 -10 2 -53 53 -96 113 -43 61 -81
108 -85 105 -18 -13 0 -176 29 -270 34 -107 78 -180 161 -263 65 -65 94 -86
171 -122 124 -59 202 -74 357 -70 69 1 136 5 149 9 135 32 277 97 333 152 56
54 62 83 62 309 1 182 -1 203 -19 234 -43 73 -53 76 -278 79 -177 2 -206 0
-236 -15z"/>
</g>
</svg>
